<?xml version="1.0" standalone="no"?>
<!DOCTYPE svg PUBLIC "-//W3C//DTD SVG 20010904//EN"
 "http://www.w3.org/TR/2001/REC-SVG-20010904/DTD/svg10.dtd">
<svg version="1.0" xmlns="http://www.w3.org/2000/svg"
 width="16.000000pt" height="16.000000pt" viewBox="0 0 16.000000 16.000000"
 preserveAspectRatio="xMidYMid meet">
<metadata>
Created by potrace 1.11, written by Peter Selinger 2001-2013
</metadata>
<g transform="translate(0.000000,16.000000) scale(0.002556,-0.002556)"
fill="#000000" stroke="none">
<path d="M3943 6245 c-28 -12 -59 -47 -154 -177 -26 -35 -86 -117 -134 -183
-49 -66 -113 -154 -143 -195 -30 -41 -68 -93 -84 -115 -16 -22 -55 -75 -86
-117 -31 -43 -67 -92 -80 -110 -13 -18 -62 -86 -110 -150 -48 -65 -111 -150
-140 -190 -102 -140 -223 -304 -324 -442 -57 -77 -119 -161 -138 -188 -19 -26
-72 -99 -118 -160 -45 -62 -120 -165 -166 -228 -47 -63 -108 -146 -136 -185
-85 -115 -219 -297 -248 -338 -15 -20 -52 -71 -82 -112 -30 -41 -93 -127 -140
-191 -47 -64 -122 -166 -167 -228 -45 -61 -105 -142 -133 -181 -28 -38 -76
-103 -106 -144 -61 -84 -70 -128 -34 -174 28 -35 61 -40 155 -22 44 9 139 27
210 40 72 13 204 38 295 55 91 16 226 41 301 54 75 14 154 29 175 35 22 5 89
17 149 27 61 9 120 20 133 25 31 12 36 -5 23 -83 -11 -61 -47 -287 -97 -608
-13 -85 -38 -243 -54 -350 -17 -107 -42 -265 -55 -350 -13 -85 -37 -243 -55
-350 -17 -107 -42 -267 -55 -355 -14 -88 -31 -198 -39 -245 -8 -47 -18 -120
-21 -162 -7 -76 -7 -77 23 -108 60 -60 116 -34 212 100 36 50 103 142 150 205
47 63 105 142 130 177 25 34 61 84 80 110 19 26 69 93 110 150 41 56 102 138
135 183 33 44 69 93 79 110 11 16 23 34 28 40 8 9 53 70 103 139 11 15 46 62
78 104 31 42 57 79 57 82 0 3 8 15 18 26 9 10 40 51 67 89 27 39 53 75 57 80
5 6 40 53 78 105 39 52 77 104 86 115 13 17 109 149 160 220 42 59 155 213
168 230 9 11 34 45 56 75 46 65 84 117 105 145 9 11 32 44 53 72 20 29 75 105
122 169 47 63 122 166 167 227 45 62 89 121 97 132 9 11 32 44 53 72 21 29 75
104 121 165 179 244 182 248 182 288 0 74 -56 105 -155 84 -218 -47 -282 -61
-295 -67 -8 -3 -71 -18 -140 -32 -144 -30 -289 -62 -480 -106 -204 -46 -289
-63 -294 -58 -3 2 2 49 10 104 8 55 25 183 39 284 13 101 27 191 30 200 3 10
16 101 30 202 48 362 75 554 81 579 3 14 17 104 29 200 51 378 75 547 84 590
6 25 17 109 26 187 9 79 20 157 25 174 5 17 12 68 16 115 l7 83 -31 29 c-39
37 -61 43 -99 27z"/>
</g>
</svg>
